<svg xmlns="http://www.w3.org/2000/svg" viewBox="0 0 19.22 19.58"><title>2cZNA5</title><g id="Layer_2" data-name="Layer 2"><g id="Layer_1-2" data-name="Layer 1"><g id="_2cZNA5" data-name="2cZNA5"><path d="M16,9l.18-.09a.76.76,0,0,1,.84.13c.17.14.32.29.48.44a.79.79,0,0,1,0,1.13l-.62.66a.18.18,0,0,0,0,.13c.18.51.36,1,.55,1.53h0a.81.81,0,0,1,1.09.12l.38.36A.79.79,0,0,1,19,14.57l-.62.67a.15.15,0,0,0,0,.19L19,17.31a.81.81,0,0,1-.22.94l-.59.54a.76.76,0,0,1-1.08,0c-.27-.3-.53-.62-.79-.93L14,15c-.84-1-1.69-2-2.53-3.07a1.29,1.29,0,0,1-.15-.17l-.37.36c-.83.8-1.72,1.51-2.62,2.22L7,15.27c-.09.07-.07.13,0,.21.23.93.46,1.86.68,2.79a.78.78,0,0,1-.5,1l-.57.23a.8.8,0,0,1-1.07-.35l-1.14-2L4.32,17l-.59.23a.7.7,0,0,1-.7,0,.58.58,0,0,1-.26-.64c.06-.26.15-.52.22-.8L1.8,15.25l-1-.46a.8.8,0,0,1-.46-1.06c.07-.2.13-.41.2-.62a.77.77,0,0,1,.9-.54L4.34,13a.21.21,0,0,0,.24-.11c.83-1.21,1.65-2.42,2.49-3.62.17-.26.39-.49.59-.74l.1-.13-.89-.63L3.28,5.29l-2.85-2A.8.8,0,0,1,.23,2l.44-.57a.78.78,0,0,1,.89-.27l1.52.43a.68.68,0,0,1,.14,0c.3.17.51.06.7-.21A5.11,5.11,0,0,1,4.31,1,.79.79,0,0,1,5.45,1l.37.35A.8.8,0,0,1,6,2.4l.1,0,1.42.39a.19.19,0,0,0,.21-.06c.19-.22.39-.44.6-.65a.76.76,0,0,1,1.11-.06c.17.14.33.29.48.44a.81.81,0,0,1,.13,1l.26.08L11.69,4a.19.19,0,0,0,.23-.06c.54-.58,1.07-1.17,1.62-1.74a7.56,7.56,0,0,1,2.92-2A2.68,2.68,0,0,1,17.83,0a1.15,1.15,0,0,1,1,.74,2.3,2.3,0,0,1,.11,1.13,5.76,5.76,0,0,1-.73,2,8.34,8.34,0,0,1-1.13,1.57c-.52.58-1.06,1.15-1.59,1.72a.17.17,0,0,0-.06.2c.2.51.38,1,.57,1.55ZM3.75,16.31l0,0c.35-.22.69-.42,1-.65.67-.44,1.35-.88,2-1.35s1.32-1,2-1.56a19.54,19.54,0,0,0,2.23-2q2.64-2.84,5.27-5.69a6.8,6.8,0,0,0,.5-.59,6.52,6.52,0,0,0,1.06-1.82A5.58,5.58,0,0,0,18,2.08a1.87,1.87,0,0,0,0-.88.36.36,0,0,0-.36-.32,2.06,2.06,0,0,0-1,.14,6.74,6.74,0,0,0-2.61,1.79C12.82,4.2,11.53,5.62,10.23,7,9.69,7.61,9.14,8.2,8.6,8.8a30.87,30.87,0,0,0-2.86,4c-.62,1-1.17,2-1.75,3A5.38,5.38,0,0,0,3.75,16.31ZM.91,2.56,8.33,7.77l2.82-3L11,4.68,9.26,4.21l-3.82-1L3,2.49l-.14-.08H2.7L1.45,2.06c-.05,0-.12,0-.15,0S1.05,2.39.91,2.56ZM17.7,18.08l.32-.3c.19-.16.19-.16.11-.38l-2-5.55c-.44-1.21-.87-2.42-1.31-3.64L14.73,8l-2.81,3.05ZM1.2,14l2.16,1L4,13.86l-2.62-.42Zm3.89,2.62,1.19,2.07.54-.22-.63-2.58ZM4.57,2A3,3,0,0,0,5,2.12S5.16,2,5.21,2s0-.08,0-.1c-.25-.25-.25-.25-.49,0ZM18,14.39l.31-.34-.21-.25-.1-.07c-.19.14-.19.14-.12.35S17.92,14.26,18,14.39Zm-1.43-4,.32-.35-.35-.32c-.05.09-.13.17-.12.23A2.08,2.08,0,0,0,16.54,10.44ZM9.26,3.08l-.32-.3-.32.34c.12,0,.22,0,.31.09A.23.23,0,0,0,9.26,3.08Z"/><path d="M16.91,2.7l-.61-.56c.08-.16.16-.35.26-.53a.11.11,0,0,1,.1,0,1,1,0,0,1,.78.73.12.12,0,0,1,0,.11Z"/><path d="M16.13,2.11,15.57,2a.17.17,0,0,1-.11-.09s0-.08.06-.11a1.44,1.44,0,0,1,.89-.27Z"/><path d="M17.5,2.55a1.45,1.45,0,0,1-.18.88.5.5,0,0,1-.14.1.35.35,0,0,1-.08-.13C17,3.23,17,3.05,17,2.87Z"/></g></g></g></svg>